<?xml version="1.0" encoding="utf-8"?>
<!-- Uploaded to: SVG Repo, www.svgrepo.com, Generator: SVG Repo Mixer Tools -->
<svg width="800px" height="800px" viewBox="-38.38 0 327.97 327.97" xmlns="http://www.w3.org/2000/svg"><defs><style>.a{fill:#ffffff;}.b{fill:#b5886a;}.c{fill:#79c6e0;}.d{fill:#a0a0a0;}.e{fill:#211715;}</style></defs><path class="a" d="M82.962,325.57C84,311.412,86.526,288.209,86.543,281.2l-1.822,1.293c-5.62,3.991-14.708,10.862-21.9,13.465A29.191,29.191,0,0,1,37.3,293.339c-10.132-6.088-13.56-17.593-15.1-29.313-2.212-16.869-2.218-35.079-2.527-51.37,10.255.722,27.905-1.938,38.63-4.186,1.542-5.215,3.27-10.721,5.9-17.571a26.617,26.617,0,0,1,5.63-8.67,29.752,29.752,0,0,1,8.59-5.73c9.27-4.48,20.45-7.62,29.65-12.33l9.538-3.664c1.368,8.206,3.977,19.747,6.85,27.57,2.18,5.94,9.33,26.18,14.2,37.75a260.093,260.093,0,0,0,12.385,25.405c12.029-27.389,26.656-55.89,30.1-90.412l12.52,5.007c7.61,4.4,18.69,9.4,27.23,13.52a53.968,53.968,0,0,1,9.34,6.07,25.244,25.244,0,0,1,7.44,11.89c5.6,18.67,8.16,69.3,11.13,128.26"/><path class="a" d="M23.733,195.433c.122,1.43.363,3.485.4,5.892,0,0,.006.533.008,1.316,4.753-.408,16.765-1.485,24.6-2.7l.169-1.4a43.32,43.32,0,0,0,.711-6.515s0-.626,0-1.525c2.885-2.313,5.4-4.63,6.97-8.139,1.95-4.36,2.8-8.673,3.9-13.312a55.415,55.415,0,0,0,1.615-9.329,4.124,4.124,0,0,0-1.3-3.307,5.13,5.13,0,0,0-3.476-.062c-1.289.605-2.5,2.984-3.74,5.462a24.068,24.068,0,0,1-3.942,6.3,4.6,4.6,0,0,1-6.228.209,7.377,7.377,0,0,1-1.8-4.647c-.157-2.116-.216-3.744.781-5.617s3.179-3.117,4.76-2.809c1.21.236,3.851,1.168,5.083,1.168a3.977,3.977,0,0,0,3.765-4.7c-.318-1.4-3.541-2.735-5.3-3.684-1.98-1.07-3.888-2.4-6.122-2.32a10.845,10.845,0,0,0-7.142,3.7,29.922,29.922,0,0,0-4.221,5.17c-3.555-7.671-10.583-21.8-12.393-24.7a4.273,4.273,0,0,0-4.436-2.206c-1.907.41-3.106,2.6-3.155,4.334a28.894,28.894,0,0,0,1.96,6.458l.713,1.732-.363-.536c-1.46-2.155-2.258-3.9-4.345-4.288a5,5,0,0,0-2.317.132,3.475,3.475,0,0,0-1.736,1.877c-.665,1.732.059,3.989.739,5.588.82,1.929,5.873,13.232,6.842,15.456l2.9,6.688.494,1.141c-2.6-3.863-5.2-7.483-7.653-11.494a7.079,7.079,0,0,0-2.863-3.135,3.113,3.113,0,0,0-4.172.834,5.111,5.111,0,0,0-.885,4.454,26.264,26.264,0,0,0,2.354,4.784c3.093,5.7,6.076,10.62,9.007,16.4,3.447,5.781,9.48,16.292,9.747,17.829"/><path class="b" d="M112.665,129.883a48.348,48.348,0,0,1-7.262-13.647c-.975,6.421-4.5,9.127-8.294,11.74-3.456,2.381-7.209,4.625-9.426,9.186a26.73,26.73,0,0,0-2.135,12.021c.105,4.213,3.48,15.1,7.678,19.64l.931,1.257a110.619,110.619,0,0,0,13.912-5.915l10.188-3.312c4.58-2.84,8.83-5.93,9.68-8.03,1.12-2.78,1.07-6.44,1.05-9.685a41.466,41.466,0,0,1-15.241-11.907Q113.187,130.562,112.665,129.883Z"/><path class="a" d="M209.872,88.4a9.662,9.662,0,0,0-1.014-3.894,6.849,6.849,0,0,0-4.922-3.273,7.251,7.251,0,0,0-5.8,1.7s1.254-41.918-49.412-41.918-47.9,41.918-47.9,41.918a7.253,7.253,0,0,0-5.8-1.7A6.848,6.848,0,0,0,90.094,84.5,9.662,9.662,0,0,0,89.08,88.4a29.01,29.01,0,0,0,2.958,15.378,18.42,18.42,0,0,0,4.768,6.257,11.654,11.654,0,0,0,7.488,2.67,49.422,49.422,0,0,0,9.452,18.53,41.565,41.565,0,0,0,15.241,11.914v.008c.02,3.23.07,6.89-1.05,9.67-.883,2.181-5.434,5.431-10.213,8.359a197.64,197.64,0,0,0,4.669,20.522l1.956.521a109.8,109.8,0,0,0,25.057,3.6c7.991.019,19.361-1.244,27.166-4.348l1.246-.5a162.746,162.746,0,0,0,3.294-19.784c-4.365-2.935-8.561-6.192-9.445-8.376-1.15-2.83-1.08-6.6-1.06-9.88v-.006h0c12.152-5.212,21.928-21.568,23.633-26.2.257-.78.781-2.251,1.247-4l.974-.151a12.215,12.215,0,0,0,5.684-2.562,18.42,18.42,0,0,0,4.768-6.257A29.01,29.01,0,0,0,209.872,88.4Z"/><path class="b" d="M90.534,74.193c.388,2.131,1.3,5.72,1.98,7.928a6.852,6.852,0,0,1,2.5-.892,7.365,7.365,0,0,1,4.652.872c7.648-3.329,13.036-9.872,16.682-15.046,7.087-10.06,9.112-17.067,10.433-24.135,5.514,7.251,55.8,34.623,70.21,36.8L199.485,82a7.326,7.326,0,0,1,4.451-.768,7.037,7.037,0,0,1,3.645,1.71,127.95,127.95,0,0,0,1.245-22.272c-1.049-15.052-6.966-31.913-16.445-41.255C180.087,7.294,169.974,2.448,146.967,2.448A58.852,58.852,0,0,0,106.326,18.8C93.905,30.946,88.458,47.958,89.35,63.559A76.826,76.826,0,0,0,90.526,74"/><path class="c" d="M146,185.722a115.637,115.637,0,0,1-21.647-3.5l-1.957-.523c.661,2.281,1.355,4.442,2.065,6.376,2.181,5.941,9.334,26.176,14.2,37.742a259.014,259.014,0,0,0,12.382,25.411c9.6-21.857,20.854-44.423,26.76-70.2l-1.231.443c-7.805,3.1-19.175,4.367-27.166,4.348C148.317,185.823,147.175,185.787,146,185.722Z"/><path class="a" d="M99.182,263.007c-4.32-6.744-6.594-17.2-7.147-25.425-.568-8.459,1.3-25.8,6.411-38.535,1.365-7.73,2.888-14.464,4.031-20.986,1.7-9.723,6.1-17.022,14.559-21.3.191,1.419.442,3.027.745,4.763-5.387,8.114-8.38,30.8-7.938,38.426,5.222,15.347,16.885,29.811,18.762,46.905.551,5.019-1.077,9.8-3.822,14.037-2.547,3.932-6.463,6.045-10.632,7.991-1.822.851-3.991,1.709-5.742,2.7-1.318.747-2.506,1.807-3.983,2.144-3.242.738-5.713-2.409-6.116-5.3-.309-2.218.152-4.472,2.539-5.647,3.224-1.587,6.393-.561,9.828-2.375,3.217-1.7,5.8-2.434,7.4-8.13,2.116-7.542-2.875-16.831-5.785-23.661-1.531-3.595-7.036-16.33-8.286-18.553-1.362,5.553-3.877,20.308-2.919,27.152.787,5.622,2.919,16.452,6.671,22.706l1.925,3.679-8.593,2.963Z"/><path class="d" d="M121.845,272.555a4.537,4.537,0,0,0-2.377-4.17l-2.4-.94c-.947.5-1.923.976-2.914,1.438-1.342.627-2.873,1.258-4.285,1.942a17.373,17.373,0,0,0,2.063,3.71,5.293,5.293,0,0,0,3.223,2.021,6.116,6.116,0,0,0,2.428-.226,5.883,5.883,0,0,0,4.053-2.853A2.545,2.545,0,0,0,121.845,272.555Z"/><path class="d" d="M98.673,264.959a4.433,4.433,0,0,1,2.176-2.179,15.847,15.847,0,0,1,5.535-1.178,24.038,24.038,0,0,1,2.294,9.845,2.337,2.337,0,0,0-.269.136c-1.318.747-2.506,1.807-3.983,2.144-3.242.738-5.713-2.409-6.116-5.3A6.337,6.337,0,0,1,98.673,264.959Z"/><path class="e" d="M123.711,184.54a113.016,113.016,0,0,0,21.5,3.534,88.674,88.674,0,0,0,20.72-1.291,57.645,57.645,0,0,0,11.279-2.99,2.473,2.473,0,0,0,1.676-2.953,2.418,2.418,0,0,0-2.952-1.676,67.881,67.881,0,0,1-19.716,4.006,86.09,86.09,0,0,1-19.679-.867,113.092,113.092,0,0,1-11.552-2.392c-2.989-.792-4.264,3.837-1.276,4.629Z"/><path class="e" d="M199.831,84.624a4.753,4.753,0,0,1,6.778.793,8.138,8.138,0,0,1,.946,4.293,25.538,25.538,0,0,1-.3,5.263c-1.074,6.345-4.371,14.076-11.434,15.306a2.421,2.421,0,0,0-1.677,2.952,2.456,2.456,0,0,0,2.953,1.677c9.71-1.692,14.351-12.708,15.156-21.474.39-4.242.281-9.548-3.3-12.474a9.712,9.712,0,0,0-12.518.27,2.421,2.421,0,0,0,0,3.394,2.451,2.451,0,0,0,3.395,0Z"/><path class="e" d="M193.987,107.2a24.137,24.137,0,0,1-1.127,6.024c-.229.771-.481,1.535-.737,2.3-.078.233-.158.464-.237.7-.161.469-.1.235-.033.1a50.732,50.732,0,0,1-3.237,5.924,57.483,57.483,0,0,1-12.837,14.8,24.358,24.358,0,0,1-9.466,4.786c-3.008.694-1.735,5.323,1.276,4.628,7.307-1.685,13.426-6.942,18.242-12.459a62.657,62.657,0,0,0,10.015-14.913,32.144,32.144,0,0,0,2.941-11.878c.106-3.089-4.694-3.085-4.8,0Z"/><path class="e" d="M102.516,81.23A9.712,9.712,0,0,0,90,80.96c-3.583,2.926-3.692,8.232-3.3,12.474.805,8.766,5.446,19.782,15.156,21.474a2.47,2.47,0,0,0,2.953-1.677,2.421,2.421,0,0,0-1.677-2.952c-7.063-1.23-10.36-8.961-11.434-15.306a25.612,25.612,0,0,1-.3-5.263,8.277,8.277,0,0,1,.947-4.293,4.747,4.747,0,0,1,6.778-.793,2.464,2.464,0,0,0,3.394,0,2.421,2.421,0,0,0,0-3.394Z"/><path class="e" d="M100.961,109.152c3.071,14.516,11.639,28.664,25.318,35.38a34.291,34.291,0,0,0,11.66,3.341,2.417,2.417,0,0,0,2.4-2.4,2.454,2.454,0,0,0-2.4-2.4c-13.461-1.4-24.471-13.04-29.313-25.052a60.583,60.583,0,0,1-3.036-10.145c-.639-3.02-5.267-1.742-4.629,1.276Z"/><path class="e" d="M168.207,142.943a50.576,50.576,0,0,0,.21,6.337,12.522,12.522,0,0,0,1.69,5.667c2.372,3.425,6.2,5.888,9.589,8.188a2.4,2.4,0,1,0,2.423-4.144c-1.614-1.1-3.219-2.214-4.729-3.45-.661-.541-1.308-1.1-1.921-1.7-.268-.26-.53-.526-.781-.8-.127-.141-.25-.283-.371-.429-.245-.293.265.433-.065-.09-.145-.23-.291-.45-.414-.694-.131-.259.131.389,0-.037-.072-.226-.153-.448-.218-.676a13.981,13.981,0,0,1-.45-2.294,54.158,54.158,0,0,1-.158-5.88c.02-3.089-4.78-3.093-4.8,0Z"/><path class="e" d="M126.587,143.153a51.44,51.44,0,0,1-.164,5.757,14.206,14.206,0,0,1-.482,2.362c-.067.222-.142.439-.219.658.053-.152.135-.232.016-.045-.084.133-.548.819-.212.393-2.189,2.771-5.51,4.655-8.48,6.5a2.4,2.4,0,1,0,2.423,4.144c1.938-1.206,3.852-2.459,5.667-3.846a20.659,20.659,0,0,0,4.278-4.045,11.2,11.2,0,0,0,1.7-5.211,48.078,48.078,0,0,0,.277-6.67c-.019-3.088-4.819-3.094-4.8,0Z"/><path class="e" d="M59.866,211.647c1.2-4.095,2.426-8.18,3.8-12.22,1.533-4.519,2.932-9.239,5.826-13.1,2.805-3.748,6.544-6.049,10.719-8.026,4.39-2.08,8.954-3.763,13.494-5.483a156.829,156.829,0,0,0,15.582-6.573c2.754-1.4.328-5.542-2.423-4.144-9.117,4.633-19.029,7.414-28.3,11.694-4.448,2.054-8.65,4.5-11.812,8.315a28.58,28.58,0,0,0-4.044,6.231c-1.129,2.454-2,5.041-2.9,7.586-1.677,4.767-3.148,9.6-4.566,14.448-.868,2.971,3.762,4.24,4.629,1.276Z"/><path class="e" d="M192.458,167.9c5.768,3.321,11.8,6.183,17.8,9.037,6.155,2.925,12.378,5.6,17.8,9.8,6.868,5.322,8.427,14.47,9.771,22.538,1.525,9.146,2.434,18.487,3.254,27.939,1.1,12.68,1.916,25.384,2.66,38.09.981,16.749,1.816,33.507,2.66,50.264.155,3.074,4.956,3.093,4.8,0-1.43-28.39-2.7-56.811-5.048-85.144-.836-10.1-1.8-20.207-3.344-30.225-1.339-8.663-2.887-17.82-8.924-24.593a37.3,37.3,0,0,0-8.456-6.491,104.548,104.548,0,0,0-10.017-5.025c-6.921-3.278-13.9-6.51-20.539-10.334-2.682-1.544-5.1,2.6-2.423,4.144Z"/><path class="e" d="M218.442,325.57c-.7-9.447-1.649-18.873-2.481-28.309-.566-6.41-1.47-12.987-.93-19.428,1.264-15.068,4.758-30.185,7.33-45.238,1.891-11.065,3.287-22.229,5.467-33.242a2.462,2.462,0,0,0-1.676-2.952,2.422,2.422,0,0,0-2.953,1.676c-1.927,9.736-3.213,19.6-4.822,29.389-1.284,7.821-2.851,15.589-4.212,23.395-1.413,8.1-2.786,16.226-3.681,24.4-.684,6.246-.146,12.373.383,18.617.9,10.566,2,21.116,2.775,31.693a2.458,2.458,0,0,0,2.4,2.4,2.421,2.421,0,0,0,2.4-2.4Z"/><path class="e" d="M72.036,199.877C73.4,210.532,74.8,221.185,76.459,231.8c1.2,7.692,2.657,15.337,4.017,23,1.321,7.444,2.692,14.936,3.414,22.258.6,6.035-.149,12.132-.668,18.149-.874,10.121-1.914,20.23-2.66,30.362a2.421,2.421,0,0,0,2.4,2.4,2.447,2.447,0,0,0,2.4-2.4c.665-9.038,1.567-18.057,2.372-27.083.353-3.957.7-7.915.965-11.879a56.222,56.222,0,0,0,.157-7.6,216.648,216.648,0,0,0-3.151-22.062c-1.23-7.1-2.606-14.174-3.788-21.282-1.977-11.887-3.553-23.836-5.081-35.787a2.478,2.478,0,0,0-2.4-2.4,2.414,2.414,0,0,0-2.4,2.4Z"/><path class="e" d="M125.246,44.826c2.269,2.687,5.548,4.7,8.443,6.625,4.71,3.139,9.59,6.027,14.511,8.82a324.1,324.1,0,0,0,34.31,17.155c4.425,1.858,9.069,3.865,13.846,4.6a2.476,2.476,0,0,0,2.952-1.677,2.419,2.419,0,0,0-1.676-2.952,54.029,54.029,0,0,1-11.694-3.716c-2.48-1-4.841-2.036-7.491-3.247q-4.233-1.935-8.4-4.006A322.689,322.689,0,0,1,137.87,48.46c-2.063-1.334-4.1-2.709-6.064-4.185-.089-.066-.176-.133-.263-.2-.355-.268.271.214.043.033-.178-.142-.358-.283-.535-.426-.323-.261-.641-.527-.953-.8a14.056,14.056,0,0,1-1.458-1.45,2.42,2.42,0,0,0-3.394,0,2.451,2.451,0,0,0,0,3.394Z"/><path class="e" d="M102.124,83.6c6.045-3.053,10.8-7.952,14.83-13.308a67.189,67.189,0,0,0,9.628-17.19,57.568,57.568,0,0,0,2.305-8.441,2.46,2.46,0,0,0-1.676-2.952,2.422,2.422,0,0,0-2.952,1.676,55.629,55.629,0,0,1-7.877,19.34C112.1,69.393,106.9,75.814,99.7,79.451c-2.758,1.393-.331,5.535,2.422,4.144Z"/><path class="e" d="M129.628,42.642Q126.4,38.972,123.29,35.2a2.406,2.406,0,0,0-1.7-.7,2.442,2.442,0,0,0-1.7.7,2.415,2.415,0,0,0-.7,1.7,2.735,2.735,0,0,0,.7,1.7q3.112,3.768,6.338,7.439a2.414,2.414,0,0,0,3.394,0,2.459,2.459,0,0,0,0-3.395Z"/><path class="e" d="M102.771,117.222c-1,3.9-3.516,6.36-6.737,8.588-3.605,2.493-7.268,4.9-9.63,8.7-4.532,7.3-3.8,16.577-1.1,24.35,1.434,4.132,3.26,8.376,6.223,11.657,2.075,2.3,5.461-1.106,3.394-3.394-2.137-2.366-3.634-5.784-4.757-8.885a50.118,50.118,0,0,1-1.58-5.2,18.933,18.933,0,0,1-.631-3.676c-.208-4.325.388-9.08,2.808-12.767,2.114-3.221,5.586-5.119,8.639-7.309,3.865-2.772,6.79-6.092,8-10.793.768-2.994-3.86-4.271-4.629-1.276Z"/><path class="e" d="M175.094,244.182c-3.19,2.932-6.426,5.816-9.749,8.6a2.409,2.409,0,0,0,0,3.394,2.464,2.464,0,0,0,3.394,0c3.323-2.78,6.559-5.665,9.749-8.6a2.419,2.419,0,0,0,0-3.394,2.452,2.452,0,0,0-3.394,0Z"/><path class="e" d="M144.907,278.989a7.424,7.424,0,0,0-1.986,8.053,6.816,6.816,0,0,0,2.043,3.033,8.179,8.179,0,0,0,4.5,1.741,7.225,7.225,0,0,0,7.229-4.041,6.949,6.949,0,0,0,.323-4.835,8.872,8.872,0,0,0-2.223-3.747,7.551,7.551,0,0,0-4.849-1.962,7.138,7.138,0,0,0-5.039,1.758,2.412,2.412,0,0,0,0,3.394,2.461,2.461,0,0,0,3.395,0c.051-.045.1-.089.158-.132l-.486.375a4.472,4.472,0,0,1,.969-.565l-.574.242a5.181,5.181,0,0,1,1.186-.316l-.638.085a5.88,5.88,0,0,1,1.44,0l-.638-.086a5.779,5.779,0,0,1,1.461.395l-.573-.242a4.888,4.888,0,0,1,1,.583l-.486-.375a4.523,4.523,0,0,1,.725.745l-.375-.486a7.482,7.482,0,0,1,.938,1.571l-.242-.573a5.916,5.916,0,0,1,.405,1.442l-.086-.638a4.827,4.827,0,0,1,0,1.183l.085-.638a4.453,4.453,0,0,1-.261.976l.242-.574a4.741,4.741,0,0,1-.6,1.032l.375-.486a5.525,5.525,0,0,1-.9.9l.485-.375a4.454,4.454,0,0,1-.926.531l.573-.242a5.728,5.728,0,0,1-1.36.362l.638-.086a6.525,6.525,0,0,1-1.658,0l.638.085a6.121,6.121,0,0,1-1.42-.381l.573.242a5.217,5.217,0,0,1-1.091-.623l.485.375a4.35,4.35,0,0,1-.768-.76l.375.486a5.015,5.015,0,0,1-.584-1.031l.242.573a6,6,0,0,1-.4-1.457l.085.638a5.55,5.55,0,0,1,0-1.381l-.085.638a5.014,5.014,0,0,1,.343-1.238l-.242.573a5.251,5.251,0,0,1,.606-1.027l-.375.486a6.28,6.28,0,0,1,.749-.8,2.417,2.417,0,0,0,0-3.394A2.456,2.456,0,0,0,144.907,278.989Z"/><path class="e" d="M114.865,158.4a168.9,168.9,0,0,0,8.231,32.926c3.685,10.192,7.335,20.4,11.346,30.473a293.193,293.193,0,0,0,17.09,35.237c3.266,5.805,6.847,11.5,9.67,17.536a61.527,61.527,0,0,1,3.307,8.125,21.312,21.312,0,0,1,.521,2.2c.231,1.228.288,1.695.414,2.865a162.456,162.456,0,0,1,.625,18.538c-.045,6.422-.244,12.84-.43,19.258-.089,3.09,4.711,3.087,4.8,0,.333-11.5.873-23.09.083-34.586a67.073,67.073,0,0,0-.781-6.9,30.836,30.836,0,0,0-1.918-6.219,147.546,147.546,0,0,0-9.1-17.87c-6.644-11.685-13.058-23.472-18.208-35.907-4.259-10.285-8.005-20.784-11.785-31.251-1.844-5.108-3.654-10.192-5.039-15.451a184.961,184.961,0,0,1-4.2-20.258,2.416,2.416,0,0,0-2.953-1.676,2.462,2.462,0,0,0-1.676,2.952Z"/><path class="a" d="M198.061,240.814a10.446,10.446,0,0,1-8.8,2.048,9,9,0,0,1-3.587-1.514c-4.693-3.354-5.11-10.106-3.875-15.307.459-1.935,2.644-6.93,7.871-8.076,2.951-18.787,1.054-43.08-6.733-55.809l-1.77-1.558q.218-2.187.373-4.407c7.855,3.3,13.046,9.2,14.618,14.979a98.588,98.588,0,0,1,1.371,47.821c4.731,2.471,6.127,8.541,5.148,13.671A13.773,13.773,0,0,1,198.061,240.814Z"/><path class="e" d="M179.06,157.316c-2.025,25.842-11.133,50.108-21.56,73.6-2.761,6.222-5.587,12.416-8.331,18.647a2.479,2.479,0,0,0,.861,3.284,2.419,2.419,0,0,0,3.284-.861c10.272-23.327,21.491-46.4,27.058-71.431a167.144,167.144,0,0,0,3.488-23.244,2.419,2.419,0,0,0-2.4-2.4,2.448,2.448,0,0,0-2.4,2.4Z"/><path class="e" d="M189.9,240.548c-5.177-1.088-6.573-6.3-6.242-10.975a16.169,16.169,0,0,1,.482-3c.052-.2.111-.4.176-.593.055-.166.431-1.048.146-.428a14.267,14.267,0,0,1,.978-1.814c.081-.126.637-.882.363-.54a10.892,10.892,0,0,1,.979-1.069,7.331,7.331,0,0,1,4.132-1.968,9.349,9.349,0,0,1,6.406,1.507c3.315,2.476,3.785,7.553,2.835,11.29-1.215,4.778-5.079,8.493-10.255,7.587a2.469,2.469,0,0,0-2.952,1.676,2.419,2.419,0,0,0,1.676,2.952,13.484,13.484,0,0,0,9.536-1.507,14.644,14.644,0,0,0,5.68-6.745c2.392-5.551,2.138-12.618-1.847-17.387-3.817-4.569-11.558-5.569-16.544-2.413a14.426,14.426,0,0,0-6.326,10.171A19.831,19.831,0,0,0,180,237.683a12.024,12.024,0,0,0,8.628,7.493C191.642,245.81,192.93,241.184,189.9,240.548Z"/><path class="e" d="M124.008,151.694c-7.349,1.84-14.014,5.581-18.438,11.849-4.589,6.5-5.437,14.4-6.952,21.986-.483,2.419-.973,4.836-1.441,7.257a46.924,46.924,0,0,1-1.728,7.4,88.212,88.212,0,0,0-3.516,12.646,99.471,99.471,0,0,0-2.36,23.529A70.571,70.571,0,0,0,91.581,250.3a46.68,46.68,0,0,0,5.528,13.923c1.644,2.606,5.8.2,4.145-2.423-4.333-6.868-6.14-15.479-6.765-23.483a84.284,84.284,0,0,1,1.471-21.059,99.786,99.786,0,0,1,2.989-12.464,51.617,51.617,0,0,0,1.983-6.066c.442-2.457.916-4.908,1.4-7.357q1.323-6.662,2.579-13.335a32.556,32.556,0,0,1,3.09-9.283c3.591-6.734,9.96-10.593,17.281-12.427,2.994-.75,1.726-5.38-1.276-4.628Z"/><path class="e" d="M109.83,258.708c-3.561-6.036-5.042-13.426-6.147-20.271a22.559,22.559,0,0,1-.384-3.5c-.057-1.521-.012-3.046.075-4.565.2-3.415.608-6.818,1.132-10.2.493-3.177,1.054-6.354,1.814-9.479l-4.387.573c2.5,4.515,4.364,9.472,6.414,14.2,2.656,6.131,5.938,12.271,7.37,18.827.766,3.5.7,7.326-1.247,10.461a5.731,5.731,0,0,1-1.09,1.3,8.2,8.2,0,0,1-1.411.97,17.357,17.357,0,0,1-4.045,1.877c-2.134.559-4.393.405-6.506,1.079a7.687,7.687,0,0,0-4.8,3.726,9.4,9.4,0,0,0,2.345,10.747,6.843,6.843,0,0,0,5.755,1.649c2.186-.393,3.881-1.951,5.809-2.934,3.7-1.888,7.665-3.235,11.068-5.686a23,23,0,0,0,7.806-10.3,23.874,23.874,0,0,0,1.213-13.211c-1.354-8.443-4.984-16.331-8.8-23.91-1.895-3.764-3.866-7.49-5.692-11.289-.859-1.79-1.7-3.593-2.45-5.431q-.557-1.363-1.063-2.747a3.582,3.582,0,0,1-.4-1.595,87.5,87.5,0,0,1,1.569-16.508c.562-3.277,1.239-6.539,2.106-9.75.4-1.48.839-2.95,1.344-4.4a27.7,27.7,0,0,1,1.39-3.419,17.739,17.739,0,0,1,1.714-2.865,2.415,2.415,0,0,0-.861-3.283,2.457,2.457,0,0,0-3.284.861c-3.265,4.355-4.665,10.3-5.841,15.515a125.223,125.223,0,0,0-2.773,18.8c-.155,2.218-.6,5.05.148,7.186a103.426,103.426,0,0,0,4.789,11.149c3.591,7.34,7.7,14.47,10.549,22.151a54.86,54.86,0,0,1,3.05,11.6,18.935,18.935,0,0,1-2.4,11.982,18.707,18.707,0,0,1-8.309,7.591c-1.818.94-3.7,1.741-5.558,2.587-.895.407-1.792.824-2.646,1.314a24.329,24.329,0,0,1-2.831,1.727c-2.608,1.051-4.1-2.736-3.67-4.78.341-1.634,2.257-2.013,3.689-2.234,2.168-.336,4.3-.376,6.362-1.228,2.762-1.143,5.569-2.656,7.376-5.1a16.665,16.665,0,0,0,2.818-10.779c-.507-7.474-4.254-14.309-7.156-21.069-2.173-5.059-4.34-10.13-6.678-15.116-.329-.7-.655-1.407-1.03-2.085a2.426,2.426,0,0,0-4.387.574,121.892,121.892,0,0,0-3.029,19.621,42.5,42.5,0,0,0,.2,9.439,97.314,97.314,0,0,0,2.085,10.3,47.965,47.965,0,0,0,4.737,12.345c1.568,2.659,5.719.247,4.144-2.422Z"/><path class="e" d="M92.628,240.389q4.083-.246,8.146-.709a2.613,2.613,0,0,0,1.7-.7,2.4,2.4,0,0,0,0-3.394,2.32,2.32,0,0,0-1.7-.7q-4.062.464-8.146.709a2.4,2.4,0,0,0,0,4.8Z"/><path class="e" d="M116.666,236.845l.34-.146-.573.242a38.727,38.727,0,0,1,6.215-2.007,2.419,2.419,0,0,0,1.676-2.952,2.452,2.452,0,0,0-2.952-1.676,41.947,41.947,0,0,0-7.129,2.394,2.4,2.4,0,0,0-1.1,1.434,2.458,2.458,0,0,0,.242,1.85,2.43,2.43,0,0,0,1.435,1.1l.638.085a2.384,2.384,0,0,0,1.211-.327Z"/><path class="e" d="M192.083,218a120.469,120.469,0,0,0,1.149-23.958,92.858,92.858,0,0,0-3.74-22.815,46.726,46.726,0,0,0-4.478-10.278c-1.6-2.64-5.749-.23-4.144,2.422,3.336,5.514,5.044,11.9,6.174,18.2a116.311,116.311,0,0,1,.41,35.156,2.479,2.479,0,0,0,1.677,2.952A2.418,2.418,0,0,0,192.083,218Z"/><path class="e" d="M199.955,219.1a101.761,101.761,0,0,0-1.477-48.569,23.287,23.287,0,0,0-6.521-10.427,33.057,33.057,0,0,0-14.414-7.782c-2.991-.783-4.267,3.845-1.276,4.629,7.328,1.919,15.094,6.806,17.424,14.315A89.974,89.974,0,0,1,197.4,199.59a104.574,104.574,0,0,1-2.076,18.235A2.46,2.46,0,0,0,197,220.777a2.422,2.422,0,0,0,2.952-1.676Z"/><path class="e" d="M104.525,263.265a24.58,24.58,0,0,1,1.625,6.006l-.086-.638q.125.936.18,1.878a2.4,2.4,0,1,0,4.8,0,26.422,26.422,0,0,0-1.89-8.522,2.643,2.643,0,0,0-1.1-1.434,2.4,2.4,0,0,0-3.284.861,2.317,2.317,0,0,0-.242,1.849Z"/><path class="e" d="M118.459,270.112c.163.069.308.156.463.239.352.187-.237-.259.021.017.128.137.259.266.383.407-.329-.373-.045-.047.023.062.1.165.19.339.282.511.207.386-.087-.324.022.063.052.186.117.366.159.555.112.5.061.034.019.021.046.014.014.481.016.535.015.414.116-.388.007-.03-.17.557.228-.285-.022.129-.087.145-.168.291-.26.432.242-.373-.151.154-.229.23-.1.1-.389.326-.112.121a9.35,9.35,0,0,1-1.112.649c-.13.059-.1.05.08-.029-.108.044-.217.085-.326.124-.19.068-.382.129-.576.185-.214.062-.43.118-.647.166-.134.03-.268.057-.4.08q.24-.024.024,0c-.239.022-.473.018-.713.019-.254-.021-.271-.02-.048,0-.087-.016-.172-.036-.257-.059s-.65-.252-.263-.068a5.436,5.436,0,0,1-.54-.3q-.114-.07-.222-.147l-.017-.014c-.155-.139-.309-.277-.455-.427s-.284-.3-.412-.465c.176.224-.188-.282-.226-.341a20.462,20.462,0,0,1-1.372-2.636,2.009,2.009,0,0,0-2.737-.717,2.057,2.057,0,0,0-.717,2.736,12.827,12.827,0,0,0,3.159,4.735,7.33,7.33,0,0,0,2.654,1.475,7.227,7.227,0,0,0,3.407.026,9.053,9.053,0,0,0,4.834-2.468,5.346,5.346,0,0,0,1.323-5.028,6.148,6.148,0,0,0-3.191-4.245,2.059,2.059,0,0,0-2.737.717,2.022,2.022,0,0,0,.718,2.737Z"/><path class="e" d="M180.362,52.1a43.09,43.09,0,0,1,16.5,28.773,2.473,2.473,0,0,0,2.4,2.4,2.415,2.415,0,0,0,2.4-2.4A47.7,47.7,0,0,0,183.756,48.7a2.481,2.481,0,0,0-3.394,0,2.415,2.415,0,0,0,0,3.394Z"/><path class="e" d="M209.976,83.086a113.457,113.457,0,0,0,1.311-21.2,76.894,76.894,0,0,0-4.717-23.312C203.9,31.21,200.163,24,194.681,18.324A63.724,63.724,0,0,0,180.1,6.764a51.216,51.216,0,0,0-17.673-5.72A85.6,85.6,0,0,0,137.256.837,58.824,58.824,0,0,0,89.172,43.479a66.41,66.41,0,0,0-1.94,24.027,71.351,71.351,0,0,0,.979,7.134,2.424,2.424,0,0,0,2.953,1.677,2.452,2.452,0,0,0,1.676-2.953c-2.927-15.159-.492-31.179,8.024-44.18A54.706,54.706,0,0,1,132.951,6.622c7.87-2.039,16.028-2.066,24.087-1.395a54.327,54.327,0,0,1,17.268,4A50.958,50.958,0,0,1,187.9,18.456a47.986,47.986,0,0,1,6.636,7.126,55.9,55.9,0,0,1,5.554,9.692,74.314,74.314,0,0,1,6.034,22.087,96.634,96.634,0,0,1-.231,19.908c-.141,1.519-.307,3.034-.542,4.541a2.476,2.476,0,0,0,1.676,2.953,2.418,2.418,0,0,0,2.952-1.677Z"/><path class="e" d="M88.22,74.831a72.26,72.26,0,0,0,1.889,7.63,2.4,2.4,0,0,0,4.629-1.276,72.26,72.26,0,0,1-1.889-7.63,2.418,2.418,0,0,0-1.1-1.434,2.4,2.4,0,0,0-3.284.861,2.7,2.7,0,0,0-.242,1.849Z"/><path class="e" d="M191.257,234.1a2.661,2.661,0,0,1-1.065-.449c-1.4-1-1.518-3-1.151-4.547a3.17,3.17,0,0,1,4.111-2.315c1.854.508,2.417,2.571,2.09,4.281C194.891,232.909,193.457,234.517,191.257,234.1Z"/><path class="a" d="M23.4,202.7l-1.056.089c.134.849.452,5.859.791,8.7l.1,1.287c9.022.029,21.537-1.716,30.945-3.487-.208-.9-.349-1.541-.349-1.541-.438-2.351-1.023-6.673-1.377-8.463C45.032,200.825,28.2,202.3,23.4,202.7Z"/><path class="e" d="M25.536,211.489c-.361-3.1-.436-6.242-.877-9.334l-2.314,3.038c4.353-.368,8.705-.761,13.05-1.211,5.9-.611,11.873-1.189,17.693-2.383l-2.952-1.676c.54,2.807.863,5.652,1.377,8.463a2.421,2.421,0,0,0,2.952,1.676,2.452,2.452,0,0,0,1.677-2.952c-.515-2.811-.838-5.656-1.378-8.463a2.442,2.442,0,0,0-2.952-1.676,167.861,167.861,0,0,1-16.732,2.244c-4.241.436-8.487.819-12.735,1.178a2.454,2.454,0,0,0-2.314,3.038c-.134-.941-.024-.128-.007.071.025.31.054.619.08.928.06.711.115,1.422.173,2.132.134,1.644.268,3.289.459,4.927a2.473,2.473,0,0,0,2.4,2.4,2.415,2.415,0,0,0,2.4-2.4Z"/><path class="e" d="M64.731,252.786c-2.073-14.658-3.494-29.39-5.019-44.111a2.447,2.447,0,0,0-3.038-2.315c-6.187,1.257-12.429,2.281-18.7,3.017a100.352,100.352,0,0,1-18.3.879,2.422,2.422,0,0,0-2.4,2.4c.194,10.295.273,20.6.78,30.881.481,9.76,1.028,19.8,3.305,29.339,1.966,8.236,5.762,16.048,12.7,21.181a31.883,31.883,0,0,0,27.334,4.879c9.136-2.6,16.928-8.96,24.543-14.374a2.468,2.468,0,0,0,.861-3.284,2.42,2.42,0,0,0-3.284-.861c-6.455,4.59-12.93,9.792-20.308,12.835a27.374,27.374,0,0,1-24.7-1.985c-6.626-4-10.223-10.939-12.156-18.213-2.337-8.795-2.87-18.116-3.376-27.164-.618-11.067-.7-22.154-.9-33.234l-2.4,2.4a101.4,101.4,0,0,0,18.7-.926q9.845-1.178,19.578-3.141l-3.038-2.314c1.569,15.149,3.057,30.3,5.191,45.387a2.415,2.415,0,0,0,2.952,1.676,2.464,2.464,0,0,0,1.676-2.952Z"/><path class="e" d="M21.333,195.433c.169,1.963.367,3.92.4,5.892a2.5,2.5,0,0,0,.7,1.7,2.4,2.4,0,0,0,4.1-1.7c-.033-1.972-.231-3.929-.4-5.892a2.579,2.579,0,0,0-.7-1.7,2.4,2.4,0,0,0-3.394,0,2.35,2.35,0,0,0-.7,1.7Z"/><path class="e" d="M47.225,192.023a35.556,35.556,0,0,1-.392,4.585l.085-.638c-.087.646-.182,1.292-.318,1.93a2.543,2.543,0,0,0,.242,1.849,2.4,2.4,0,0,0,4.386-.573,38.443,38.443,0,0,0,.56-3.836,31.171,31.171,0,0,0,.237-3.317,2.4,2.4,0,1,0-4.8,0Z"/><path class="e" d="M35.151,153.039q-4.38-9.4-9.14-18.626a58.8,58.8,0,0,0-3.171-5.849c-2.433-3.645-7.509-4.688-10.4-.933a7.1,7.1,0,0,0-1.412,5.734,31.7,31.7,0,0,0,1.871,5.746,2.477,2.477,0,0,0,2.953,1.676,2.416,2.416,0,0,0,1.676-2.952,42.973,42.973,0,0,1-1.567-4.521c-.079-.284-.157-.569-.223-.856-.075-.324-.025-.786-.08-.306a2.942,2.942,0,0,1,.376-1.313c1.212-2.051,2.716.174,3.391,1.382,2.606,4.66,4.936,9.487,7.286,14.28,1.458,2.974,2.9,5.958,4.3,8.961a2.42,2.42,0,0,0,3.284.861,2.455,2.455,0,0,0,.861-3.284Z"/><path class="e" d="M26.235,157.439c-1.916-4.806-3.955-9.576-6.151-14.261a40.575,40.575,0,0,0-2.451-4.72c-1.785-2.783-3.595-5.476-7.234-5.55-4.1-.083-6.322,3.6-5.773,7.375a22.866,22.866,0,0,0,2.051,5.846c1.74,3.947,3.5,7.883,5.25,11.827,1.233,2.784,2.431,5.584,3.642,8.378a2.415,2.415,0,0,0,3.283.861,2.463,2.463,0,0,0,.861-3.284q-3.584-8.275-7.255-16.511c-.7-1.572-1.4-3.143-2.087-4.718-.093-.213-.188-.426-.279-.64-.029-.069-.163-.413-.012-.03-.092-.233-.183-.465-.266-.7-.293-.838-1.047-2.739-.126-3.472a1.5,1.5,0,0,1,1.669.149,9.822,9.822,0,0,1,2.131,2.892,37.309,37.309,0,0,1,2.2,4.191c2.124,4.477,4.083,9.042,5.918,13.644a2.474,2.474,0,0,0,2.952,1.677,2.417,2.417,0,0,0,1.676-2.953Z"/><path class="e" d="M20.618,165.664c-1.735-2.593-3.526-5.148-5.259-7.743-.872-1.3-1.728-2.621-2.554-3.956a15.775,15.775,0,0,0-2.3-3.205c-1.963-1.887-5.187-2.691-7.571-1.1A7.481,7.481,0,0,0,.248,157.56c.8,2.915,2.748,5.667,4.21,8.286,1.5,2.687,3.033,5.356,4.517,8.052,1.319,2.4,2.542,4.844,3.931,7.2q1.725,2.928,3.408,5.881c1.174,2.062,2.337,4.131,3.447,6.228.41.773.816,1.55,1.193,2.341.078.164.153.331.231.5.206.436-.147-.459-.007-.025.059.186.137.36.178.553.629,3.022,5.257,1.743,4.628-1.276a12.7,12.7,0,0,0-1.261-2.934c-.767-1.53-1.591-3.032-2.421-4.528-1.925-3.474-3.916-6.914-5.943-10.329-1.319-2.221-2.432-4.578-3.686-6.839-1.344-2.422-2.721-4.826-4.071-7.245-.657-1.177-1.3-2.365-1.954-3.543a16.268,16.268,0,0,1-1.772-3.6c-.312-1.187.21-3.195,1.7-2.488.948.45,1.438,1.54,1.96,2.388.824,1.338,1.679,2.658,2.55,3.966,1.773,2.661,3.61,5.279,5.388,7.937,1.708,2.555,5.868.155,4.145-2.423Z"/><path class="e" d="M49.364,193.739c3.543-2.778,7.133-5.643,9.13-9.8,2.2-4.576,3.217-9.585,4.37-14.494.538-2.292,1.033-4.593,1.353-6.927.308-2.251.568-4.583-.692-6.621-1.29-2.087-3.591-2.439-5.85-2.1-2.214.335-3.554,2.074-4.629,3.9-1.221,2.074-2.122,4.32-3.361,6.384-.783,1.3-1.73,3.028-3.413,2.951-1.561-.071-2.032-1.732-2.217-3.047-.245-1.75-.352-3.955.871-5.382s2.026-.961,3.628-.515c1.89.526,3.833,1.05,5.752.359,3.659-1.317,5.853-6.695,2.587-9.556-1.667-1.461-3.788-2.273-5.7-3.345-2.564-1.435-5.027-2.567-8.032-2.077a13.4,13.4,0,0,0-7.123,3.95,36.5,36.5,0,0,0-4.821,5.856c-1.674,2.607,2.479,5.016,4.144,2.422a31.575,31.575,0,0,1,3.651-4.436,9.251,9.251,0,0,1,5.026-3.094c2.025-.344,3.785,1.028,5.472,1.934a25.824,25.824,0,0,1,3.991,2.184c.553.451.131.34.2.066.126-.485-.087.6-.02.238a1.929,1.929,0,0,1-.568,1.118,1.675,1.675,0,0,1-1.142.283,19.254,19.254,0,0,1-2.637-.669,7.316,7.316,0,0,0-5.39.139,8.191,8.191,0,0,0-4.075,4.4c-1.416,3.447-1.046,8.945,1.531,11.8,2.968,3.293,8.017,2.547,10.656-.673a29,29,0,0,0,3.413-5.589c.52-1.04,1.033-2.086,1.612-3.095a11.04,11.04,0,0,1,.8-1.274c.086-.111.763-.7.285-.456.405-.206,1.059-.051,1.356-.1.616-.11-.087.149-.169-.181.021.086.178.217.2.318.047.266.147.531.166.787a22.281,22.281,0,0,1-.825,5.848A92.1,92.1,0,0,1,54.9,180.246c-1.752,4.444-5.276,7.234-8.931,10.1a2.414,2.414,0,0,0,0,3.394,2.462,2.462,0,0,0,3.395,0Z"/><path class="e" d="M146.371,88.272c.421-.105.844-.2,1.272-.276.182-.033.366-.061.549-.091.622-.1-.53.048.1-.01a22.183,22.183,0,0,1,2.4-.111c.37.007.741.024,1.11.052q.324.025.646.061c.092.01.184.02.276.032-.331-.046-.36-.048-.087-.008a23.47,23.47,0,0,1,2.359.523,2.4,2.4,0,0,0,1.276-4.628,21.741,21.741,0,0,0-11.179-.173,2.423,2.423,0,0,0-1.676,2.952,2.448,2.448,0,0,0,2.952,1.677Z"/><path class="e" d="M190.507,84.5q.444-.082.893-.143l-.638.085a17.128,17.128,0,0,1,3.365-.105,2.4,2.4,0,0,0,1.7-4.1l-.486-.376a2.384,2.384,0,0,0-1.211-.327,19.524,19.524,0,0,0-4.9.335,2.416,2.416,0,0,0-1.435,1.1,2.453,2.453,0,0,0-.242,1.849,2.426,2.426,0,0,0,1.1,1.434l.574.242a2.4,2.4,0,0,0,1.276,0Z"/><path class="e" d="M113.29,79.868a19.532,19.532,0,0,0-4.9-.335,2.547,2.547,0,0,0-1.7.7,2.4,2.4,0,0,0,0,3.394,2.383,2.383,0,0,0,1.7.7,17.128,17.128,0,0,1,3.365.105l-.638-.085q.448.06.894.143a2.579,2.579,0,0,0,1.849-.242,2.4,2.4,0,0,0,.861-3.283,2.361,2.361,0,0,0-1.434-1.1Z"/><path class="e" d="M147.546,83.264a7.2,7.2,0,0,0-2.728-4.934,14.214,14.214,0,0,0-5.574-1.99,46.934,46.934,0,0,0-12.634-.8c-3.962.269-8.349.825-11.965,2.571-3.691,1.782-4.41,5.39-4.525,9.13-.1,3.3.027,6.743,1.434,9.781,1.608,3.473,5.281,5.017,8.813,5.819a45.175,45.175,0,0,0,11.816.723c3.62-.142,7.658-.1,10.746-2.282,5.579-3.949,5.552-11.95,4.617-18.014a2.417,2.417,0,0,0-2.953-1.676,2.46,2.46,0,0,0-1.676,2.952c.535,3.466.74,8.73-1.548,11.693C139.9,98.14,137.36,98.519,135,98.638a81.982,81.982,0,0,1-9.431.118c-2.748-.178-6.3-.584-8.547-2.333-1.732-1.346-1.992-3.979-2.093-6-.06-1.225-.039-2.451.006-3.675.04-1.1-.023-2.48.657-3.422.763-1.058,2.3-1.385,3.464-1.707a37.327,37.327,0,0,1,4.976-1.029,45.4,45.4,0,0,1,11.057-.087,32.869,32.869,0,0,1,5.424,1.094,3.847,3.847,0,0,1,1.674.754,3.9,3.9,0,0,1,.728,2.194,2.419,2.419,0,0,0,2.953,1.676A2.458,2.458,0,0,0,147.546,83.264Z"/><path class="e" d="M158.953,84.54c.209-1.266.351-2.2,1.608-2.7a23.725,23.725,0,0,1,5.023-1.171,44.021,44.021,0,0,1,10.247-.294,28.412,28.412,0,0,1,9.141,1.885c2.478,1.114,2.177,3.861,2.2,6.188.019,2.278.035,5.057-1.275,7.035-1.418,2.143-4.912,2.715-7.252,3.06a49.846,49.846,0,0,1-9.311.2c-2.516-.1-5.764.034-7.8-1.5-3.479-2.628-3.158-8.966-2.579-12.706a2.476,2.476,0,0,0-1.676-2.952,2.417,2.417,0,0,0-2.952,1.676c-.852,5.5-.955,12.163,2.987,16.581,2.428,2.721,6.146,3.422,9.622,3.6a67.276,67.276,0,0,0,11.47-.062c3.637-.44,8.136-1.311,10.683-4.2,2.267-2.573,2.789-6.167,2.872-9.477.084-3.381.21-7.478-2.365-10.04-2.746-2.733-7.475-3.317-11.135-3.8a48.984,48.984,0,0,0-14.151.184,21.178,21.178,0,0,0-6.458,1.784,7.035,7.035,0,0,0-3.525,5.437A2.473,2.473,0,0,0,156,86.216,2.419,2.419,0,0,0,158.953,84.54Z"/><path class="e" d="M141.617,122.048a19.4,19.4,0,0,0,9.348,2.163,15.2,15.2,0,0,0,9.428-2.778,2.413,2.413,0,0,0,0-3.394,2.462,2.462,0,0,0-3.394,0c.726-.565.155-.128-.032-.008s-.381.232-.579.335c-.163.086-.874.368-.22.126-.266.1-.528.2-.8.291a14.018,14.018,0,0,1-2.235.51c.35-.052-.086.006-.222.02-.219.021-.439.04-.659.054-.528.034-1.059.047-1.588.044-.475,0-.95-.019-1.423-.051-.218-.015-.435-.032-.652-.054-.018,0-.8-.11-.323-.035a16.013,16.013,0,0,1-2.088-.464c-.293-.087-.578-.192-.867-.291-.616-.211.344.179-.211-.083-.359-.169-.712-.345-1.062-.53a2.451,2.451,0,0,0-3.283.861,2.426,2.426,0,0,0,.861,3.284Z"/><path class="e" d="M149.761,100.005a44,44,0,0,1,1.034,4.732l-.086-.638a2.852,2.852,0,0,1,.018.653l.086-.638a1.66,1.66,0,0,1-.072.294l.242-.574a1.2,1.2,0,0,1-.1.189l.375-.486a.969.969,0,0,1-.154.153l.485-.375a3.175,3.175,0,0,1-.374.2l.573-.242a2.727,2.727,0,0,1-.632.184l.638-.085a2.5,2.5,0,0,1-.593,0l.638.086c-.223-.031-.443-.085-.666-.115a1.812,1.812,0,0,0-.957-.043,1.786,1.786,0,0,0-.893.284,2.4,2.4,0,0,0-.861,3.284,2.3,2.3,0,0,0,1.435,1.1c.506.068,1,.2,1.513.22a4.84,4.84,0,0,0,2.227-.529,3.212,3.212,0,0,0,1.781-2.116,5.328,5.328,0,0,0-.023-2.283c-.257-1.524-.61-3.035-1-4.53a2.4,2.4,0,1,0-4.628,1.276Z"/><path class="e" d="M124.916,86.713c-.759,2.465-.264,8.136,4.406,8.619,6.173-.037,6.5-6.894,4.424-10.118C132.044,82.575,127.041,81.477,124.916,86.713Z"/><path class="e" d="M176.005,86.713c.759,2.465.265,8.136-4.406,8.619-6.173-.037-6.5-6.894-4.424-10.118C168.877,82.575,173.879,81.477,176.005,86.713Z"/></svg>